<svg width="27" height="29" viewBox="0 0 27 29" fill="none" xmlns="http://www.w3.org/2000/svg">
<mask id="path-1-outside-1_189_2393" maskUnits="userSpaceOnUse" x="-0.333374" y="9.60498" width="27" height="19" fill="black">
<rect fill="white" x="-0.333374" y="9.60498" width="27" height="19"/>
<path fill-rule="evenodd" clip-rule="evenodd" d="M18.6569 15.209L18.6749 14.9831C18.6902 14.7902 18.6668 14.5963 18.6059 14.4126C18.5451 14.229 18.448 14.0594 18.3205 13.9138C18.193 13.7683 18.0377 13.6498 17.8636 13.5653C17.6896 13.4808 17.5004 13.4321 17.3072 13.4219L10.69 13.0744C10.4865 13.0635 10.283 13.0958 10.0928 13.169C9.90259 13.2423 9.73005 13.3549 9.58644 13.4996L5.9827 17.1253L5.91261 17.057C5.77655 16.924 5.61561 16.8193 5.43902 16.7486C5.26242 16.6779 5.07363 16.6428 4.88344 16.6452C4.69325 16.6475 4.50539 16.6874 4.3306 16.7624C4.15582 16.8374 3.99755 16.9462 3.86484 17.0824L0.748856 20.2766C0.695242 20.3316 0.665672 20.4057 0.666649 20.4825C0.667627 20.5593 0.699073 20.6326 0.754069 20.6862L7.9963 27.7512C8.05131 27.8048 8.12536 27.8343 8.20216 27.8334C8.27896 27.8324 8.35224 27.8009 8.40586 27.7459L11.5218 24.5518C11.7739 24.293 11.9203 23.9495 11.9323 23.5885C11.9443 23.2275 11.821 22.875 11.5867 22.6001L13.5488 20.78C13.6774 20.6607 13.839 20.5831 14.0122 20.5576L21.3894 19.4616C21.7138 19.4134 22.0121 19.2565 22.2357 19.0167L25.6767 15.3284C25.8183 15.1768 25.9257 14.9965 25.9916 14.7998C26.0574 14.6031 26.0802 14.3945 26.0584 14.1882C26.0366 13.9819 25.9707 13.7827 25.8652 13.6041C25.7596 13.4256 25.6169 13.2717 25.4467 13.1531L25.3407 13.079C25.109 12.9174 24.8351 12.827 24.5527 12.8189C24.2703 12.8109 23.9917 12.8856 23.7511 13.0338L23.8884 12.7702C23.984 12.5873 24.0394 12.386 24.0507 12.18C24.0621 11.9739 24.0292 11.7677 23.9543 11.5754C23.8794 11.3831 23.7642 11.209 23.6165 11.0649C23.4687 10.9208 23.2918 10.8099 23.0977 10.7398L22.9645 10.6918C22.6472 10.5766 22.2997 10.576 21.982 10.6901C21.6643 10.8041 21.3965 11.0256 21.2249 11.3162L19.1551 14.8192C19.044 15.0072 18.8661 15.1464 18.6569 15.209ZM11.1071 24.1474L8.19326 27.1342L1.3658 20.4736L4.2796 17.4868C4.35926 17.4051 4.45423 17.3398 4.55911 17.2948C4.66399 17.2499 4.7767 17.226 4.89081 17.2246C5.00493 17.2232 5.11819 17.2443 5.22414 17.2867C5.33009 17.3291 5.42664 17.392 5.50827 17.4717L11.092 22.9187C11.2568 23.0798 11.3509 23.2996 11.3537 23.53C11.3566 23.7603 11.2678 23.9824 11.1071 24.1474ZM11.176 22.1912L13.1548 20.3554C13.3692 20.1567 13.638 20.0275 13.927 19.9847L21.3042 18.8887C21.4989 18.8598 21.6781 18.7656 21.8123 18.6216L25.2532 14.9333C25.3383 14.8424 25.4028 14.7343 25.4424 14.6162C25.4819 14.4982 25.4957 14.373 25.4826 14.2492C25.4695 14.1254 25.4299 14.0059 25.3666 13.8987C25.3032 13.7916 25.2175 13.6993 25.1154 13.6282L25.0094 13.554C24.8432 13.438 24.6417 13.3837 24.4398 13.4005C24.2379 13.4174 24.0482 13.5042 23.9035 13.6461L20.9891 16.5026C20.7313 16.7546 20.3889 16.9017 20.0287 16.915L17.4514 17.0106C17.361 17.028 17.2684 17.0373 17.1734 17.0373L15.0358 17.0367C14.9621 17.032 14.893 16.9995 14.8425 16.9457C14.792 16.8919 14.7639 16.8208 14.7639 16.747C14.7639 16.6732 14.792 16.6022 14.8425 16.5484C14.893 16.4946 14.9621 16.4621 15.0358 16.4574L17.1734 16.458C17.3919 16.4581 17.6025 16.3758 17.7632 16.2275C17.9238 16.0792 18.0226 15.8759 18.04 15.658L18.0973 14.9368C18.1066 14.8211 18.0926 14.7047 18.0561 14.5945C18.0197 14.4843 17.9615 14.3825 17.885 14.2952C17.8086 14.2078 17.7153 14.1367 17.6109 14.086C17.5065 14.0354 17.393 14.0061 17.277 14.0001L10.6593 13.6525C10.5372 13.6462 10.4151 13.6656 10.301 13.7096C10.1869 13.7537 10.0834 13.8212 9.99716 13.908L6.39747 17.5302L11.176 22.1912ZM22.4709 14.2393L23.3746 12.5026C23.432 12.3929 23.4652 12.2721 23.472 12.1484C23.4788 12.0248 23.4591 11.9011 23.4142 11.7857C23.3692 11.6703 23.3001 11.5658 23.2115 11.4794C23.1228 11.3929 23.0167 11.3264 22.9002 11.2844L22.7675 11.2363C22.577 11.1672 22.3684 11.1668 22.1777 11.2353C21.9869 11.3037 21.8261 11.4366 21.7231 11.6111L19.6539 15.114C19.4655 15.4324 19.1625 15.6666 18.8069 15.7686L18.6024 15.8277C18.5653 16.0524 18.4753 16.265 18.34 16.4481L20.0072 16.3363C20.2239 16.3282 20.4289 16.2402 20.5836 16.0884L22.4709 14.2393Z"/>
</mask>
<path fill-rule="evenodd" clip-rule="evenodd" d="M18.6569 15.209L18.6749 14.9831C18.6902 14.7902 18.6668 14.5963 18.6059 14.4126C18.5451 14.229 18.448 14.0594 18.3205 13.9138C18.193 13.7683 18.0377 13.6498 17.8636 13.5653C17.6896 13.4808 17.5004 13.4321 17.3072 13.4219L10.69 13.0744C10.4865 13.0635 10.283 13.0958 10.0928 13.169C9.90259 13.2423 9.73005 13.3549 9.58644 13.4996L5.9827 17.1253L5.91261 17.057C5.77655 16.924 5.61561 16.8193 5.43902 16.7486C5.26242 16.6779 5.07363 16.6428 4.88344 16.6452C4.69325 16.6475 4.50539 16.6874 4.3306 16.7624C4.15582 16.8374 3.99755 16.9462 3.86484 17.0824L0.748856 20.2766C0.695242 20.3316 0.665672 20.4057 0.666649 20.4825C0.667627 20.5593 0.699073 20.6326 0.754069 20.6862L7.9963 27.7512C8.05131 27.8048 8.12536 27.8343 8.20216 27.8334C8.27896 27.8324 8.35224 27.8009 8.40586 27.7459L11.5218 24.5518C11.7739 24.293 11.9203 23.9495 11.9323 23.5885C11.9443 23.2275 11.821 22.875 11.5867 22.6001L13.5488 20.78C13.6774 20.6607 13.839 20.5831 14.0122 20.5576L21.3894 19.4616C21.7138 19.4134 22.0121 19.2565 22.2357 19.0167L25.6767 15.3284C25.8183 15.1768 25.9257 14.9965 25.9916 14.7998C26.0574 14.6031 26.0802 14.3945 26.0584 14.1882C26.0366 13.9819 25.9707 13.7827 25.8652 13.6041C25.7596 13.4256 25.6169 13.2717 25.4467 13.1531L25.3407 13.079C25.109 12.9174 24.8351 12.827 24.5527 12.8189C24.2703 12.8109 23.9917 12.8856 23.7511 13.0338L23.8884 12.7702C23.984 12.5873 24.0394 12.386 24.0507 12.18C24.0621 11.9739 24.0292 11.7677 23.9543 11.5754C23.8794 11.3831 23.7642 11.209 23.6165 11.0649C23.4687 10.9208 23.2918 10.8099 23.0977 10.7398L22.9645 10.6918C22.6472 10.5766 22.2997 10.576 21.982 10.6901C21.6643 10.8041 21.3965 11.0256 21.2249 11.3162L19.1551 14.8192C19.044 15.0072 18.8661 15.1464 18.6569 15.209ZM11.1071 24.1474L8.19326 27.1342L1.3658 20.4736L4.2796 17.4868C4.35926 17.4051 4.45423 17.3398 4.55911 17.2948C4.66399 17.2499 4.7767 17.226 4.89081 17.2246C5.00493 17.2232 5.11819 17.2443 5.22414 17.2867C5.33009 17.3291 5.42664 17.392 5.50827 17.4717L11.092 22.9187C11.2568 23.0798 11.3509 23.2996 11.3537 23.53C11.3566 23.7603 11.2678 23.9824 11.1071 24.1474ZM11.176 22.1912L13.1548 20.3554C13.3692 20.1567 13.638 20.0275 13.927 19.9847L21.3042 18.8887C21.4989 18.8598 21.6781 18.7656 21.8123 18.6216L25.2532 14.9333C25.3383 14.8424 25.4028 14.7343 25.4424 14.6162C25.4819 14.4982 25.4957 14.373 25.4826 14.2492C25.4695 14.1254 25.4299 14.0059 25.3666 13.8987C25.3032 13.7916 25.2175 13.6993 25.1154 13.6282L25.0094 13.554C24.8432 13.438 24.6417 13.3837 24.4398 13.4005C24.2379 13.4174 24.0482 13.5042 23.9035 13.6461L20.9891 16.5026C20.7313 16.7546 20.3889 16.9017 20.0287 16.915L17.4514 17.0106C17.361 17.028 17.2684 17.0373 17.1734 17.0373L15.0358 17.0367C14.9621 17.032 14.893 16.9995 14.8425 16.9457C14.792 16.8919 14.7639 16.8208 14.7639 16.747C14.7639 16.6732 14.792 16.6022 14.8425 16.5484C14.893 16.4946 14.9621 16.4621 15.0358 16.4574L17.1734 16.458C17.3919 16.4581 17.6025 16.3758 17.7632 16.2275C17.9238 16.0792 18.0226 15.8759 18.04 15.658L18.0973 14.9368C18.1066 14.8211 18.0926 14.7047 18.0561 14.5945C18.0197 14.4843 17.9615 14.3825 17.885 14.2952C17.8086 14.2078 17.7153 14.1367 17.6109 14.086C17.5065 14.0354 17.393 14.0061 17.277 14.0001L10.6593 13.6525C10.5372 13.6462 10.4151 13.6656 10.301 13.7096C10.1869 13.7537 10.0834 13.8212 9.99716 13.908L6.39747 17.5302L11.176 22.1912ZM22.4709 14.2393L23.3746 12.5026C23.432 12.3929 23.4652 12.2721 23.472 12.1484C23.4788 12.0248 23.4591 11.9011 23.4142 11.7857C23.3692 11.6703 23.3001 11.5658 23.2115 11.4794C23.1228 11.3929 23.0167 11.3264 22.9002 11.2844L22.7675 11.2363C22.577 11.1672 22.3684 11.1668 22.1777 11.2353C21.9869 11.3037 21.8261 11.4366 21.7231 11.6111L19.6539 15.114C19.4655 15.4324 19.1625 15.6666 18.8069 15.7686L18.6024 15.8277C18.5653 16.0524 18.4753 16.265 18.34 16.4481L20.0072 16.3363C20.2239 16.3282 20.4289 16.2402 20.5836 16.0884L22.4709 14.2393Z" fill="#4B1C2F"/>
<path fill-rule="evenodd" clip-rule="evenodd" d="M18.6569 15.209L18.6749 14.9831C18.6902 14.7902 18.6668 14.5963 18.6059 14.4126C18.5451 14.229 18.448 14.0594 18.3205 13.9138C18.193 13.7683 18.0377 13.6498 17.8636 13.5653C17.6896 13.4808 17.5004 13.4321 17.3072 13.4219L10.69 13.0744C10.4865 13.0635 10.283 13.0958 10.0928 13.169C9.90259 13.2423 9.73005 13.3549 9.58644 13.4996L5.9827 17.1253L5.91261 17.057C5.77655 16.924 5.61561 16.8193 5.43902 16.7486C5.26242 16.6779 5.07363 16.6428 4.88344 16.6452C4.69325 16.6475 4.50539 16.6874 4.3306 16.7624C4.15582 16.8374 3.99755 16.9462 3.86484 17.0824L0.748856 20.2766C0.695242 20.3316 0.665672 20.4057 0.666649 20.4825C0.667627 20.5593 0.699073 20.6326 0.754069 20.6862L7.9963 27.7512C8.05131 27.8048 8.12536 27.8343 8.20216 27.8334C8.27896 27.8324 8.35224 27.8009 8.40586 27.7459L11.5218 24.5518C11.7739 24.293 11.9203 23.9495 11.9323 23.5885C11.9443 23.2275 11.821 22.875 11.5867 22.6001L13.5488 20.78C13.6774 20.6607 13.839 20.5831 14.0122 20.5576L21.3894 19.4616C21.7138 19.4134 22.0121 19.2565 22.2357 19.0167L25.6767 15.3284C25.8183 15.1768 25.9257 14.9965 25.9916 14.7998C26.0574 14.6031 26.0802 14.3945 26.0584 14.1882C26.0366 13.9819 25.9707 13.7827 25.8652 13.6041C25.7596 13.4256 25.6169 13.2717 25.4467 13.1531L25.3407 13.079C25.109 12.9174 24.8351 12.827 24.5527 12.8189C24.2703 12.8109 23.9917 12.8856 23.7511 13.0338L23.8884 12.7702C23.984 12.5873 24.0394 12.386 24.0507 12.18C24.0621 11.9739 24.0292 11.7677 23.9543 11.5754C23.8794 11.3831 23.7642 11.209 23.6165 11.0649C23.4687 10.9208 23.2918 10.8099 23.0977 10.7398L22.9645 10.6918C22.6472 10.5766 22.2997 10.576 21.982 10.6901C21.6643 10.8041 21.3965 11.0256 21.2249 11.3162L19.1551 14.8192C19.044 15.0072 18.8661 15.1464 18.6569 15.209ZM11.1071 24.1474L8.19326 27.1342L1.3658 20.4736L4.2796 17.4868C4.35926 17.4051 4.45423 17.3398 4.55911 17.2948C4.66399 17.2499 4.7767 17.226 4.89081 17.2246C5.00493 17.2232 5.11819 17.2443 5.22414 17.2867C5.33009 17.3291 5.42664 17.392 5.50827 17.4717L11.092 22.9187C11.2568 23.0798 11.3509 23.2996 11.3537 23.53C11.3566 23.7603 11.2678 23.9824 11.1071 24.1474ZM11.176 22.1912L13.1548 20.3554C13.3692 20.1567 13.638 20.0275 13.927 19.9847L21.3042 18.8887C21.4989 18.8598 21.6781 18.7656 21.8123 18.6216L25.2532 14.9333C25.3383 14.8424 25.4028 14.7343 25.4424 14.6162C25.4819 14.4982 25.4957 14.373 25.4826 14.2492C25.4695 14.1254 25.4299 14.0059 25.3666 13.8987C25.3032 13.7916 25.2175 13.6993 25.1154 13.6282L25.0094 13.554C24.8432 13.438 24.6417 13.3837 24.4398 13.4005C24.2379 13.4174 24.0482 13.5042 23.9035 13.6461L20.9891 16.5026C20.7313 16.7546 20.3889 16.9017 20.0287 16.915L17.4514 17.0106C17.361 17.028 17.2684 17.0373 17.1734 17.0373L15.0358 17.0367C14.9621 17.032 14.893 16.9995 14.8425 16.9457C14.792 16.8919 14.7639 16.8208 14.7639 16.747C14.7639 16.6732 14.792 16.6022 14.8425 16.5484C14.893 16.4946 14.9621 16.4621 15.0358 16.4574L17.1734 16.458C17.3919 16.4581 17.6025 16.3758 17.7632 16.2275C17.9238 16.0792 18.0226 15.8759 18.04 15.658L18.0973 14.9368C18.1066 14.8211 18.0926 14.7047 18.0561 14.5945C18.0197 14.4843 17.9615 14.3825 17.885 14.2952C17.8086 14.2078 17.7153 14.1367 17.6109 14.086C17.5065 14.0354 17.393 14.0061 17.277 14.0001L10.6593 13.6525C10.5372 13.6462 10.4151 13.6656 10.301 13.7096C10.1869 13.7537 10.0834 13.8212 9.99716 13.908L6.39747 17.5302L11.176 22.1912ZM22.4709 14.2393L23.3746 12.5026C23.432 12.3929 23.4652 12.2721 23.472 12.1484C23.4788 12.0248 23.4591 11.9011 23.4142 11.7857C23.3692 11.6703 23.3001 11.5658 23.2115 11.4794C23.1228 11.3929 23.0167 11.3264 22.9002 11.2844L22.7675 11.2363C22.577 11.1672 22.3684 11.1668 22.1777 11.2353C21.9869 11.3037 21.8261 11.4366 21.7231 11.6111L19.6539 15.114C19.4655 15.4324 19.1625 15.6666 18.8069 15.7686L18.6024 15.8277C18.5653 16.0524 18.4753 16.265 18.34 16.4481L20.0072 16.3363C20.2239 16.3282 20.4289 16.2402 20.5836 16.0884L22.4709 14.2393Z" stroke="#4B1C2F" stroke-width="0.6" mask="url(#path-1-outside-1_189_2393)"/>
<path d="M5.18262 19.0388C5.57078 19.0338 5.94743 19.1615 6.25098 19.3982L6.37598 19.5066L6.38184 19.5115L6.48926 19.6375C6.72598 19.941 6.85462 20.3176 6.84961 20.7058C6.84376 21.1492 6.66416 21.5729 6.35059 21.8865C6.03693 22.2 5.61338 22.3788 5.16992 22.3845C4.72636 22.3902 4.29823 22.2222 3.97656 21.9167L3.9707 21.9119C3.66533 21.5903 3.49829 21.1619 3.50391 20.7185C3.50964 20.2749 3.68827 19.8505 4.00195 19.5369C4.3156 19.2233 4.73918 19.0446 5.18262 19.0388ZM5.09473 19.8933C4.90677 19.9121 4.73044 19.9959 4.5957 20.1306C4.44175 20.2846 4.35461 20.493 4.35449 20.7107L4.3584 20.7927C4.37714 20.9807 4.46097 21.157 4.5957 21.2917C4.75089 21.4364 4.95575 21.5156 5.16797 21.5125C5.38171 21.5093 5.58614 21.4234 5.7373 21.2722C5.88847 21.121 5.97436 20.9166 5.97754 20.7029C5.98069 20.4906 5.90148 20.2858 5.75684 20.1306L5.69727 20.0759C5.55113 19.9561 5.36741 19.8895 5.17676 19.8894L5.09473 19.8933ZM16.1982 1.01636C16.3479 1.01644 16.495 1.05852 16.6221 1.13745C16.7491 1.21642 16.8516 1.32955 16.918 1.46362L18.2266 4.11304L21.1504 4.53882H21.1514L21.2598 4.56226C21.3669 4.59353 21.4668 4.64696 21.5527 4.71948C21.6671 4.81599 21.7525 4.94242 21.7988 5.08472C21.8451 5.22706 21.8502 5.3798 21.8145 5.52515C21.7876 5.6342 21.7391 5.73671 21.6709 5.82495L21.5957 5.90796L19.4785 7.97144L19.9795 10.8845V10.8855L19.9902 10.9968C19.9933 11.108 19.9739 11.2192 19.9316 11.323C19.8751 11.4616 19.7803 11.5816 19.6592 11.6697C19.5381 11.7577 19.3945 11.811 19.2451 11.822C19.096 11.833 18.947 11.8013 18.8145 11.7322H18.8135L16.1973 10.3562L13.582 11.7322C13.4494 11.802 13.2999 11.8337 13.1504 11.823C13.0008 11.8122 12.8567 11.7598 12.7354 11.6716C12.6142 11.5835 12.5203 11.4628 12.4639 11.324C12.4074 11.185 12.3905 11.0324 12.416 10.8845L12.916 7.97144L10.7998 5.90894H10.7988C10.6921 5.80416 10.6167 5.67137 10.5811 5.52612C10.5454 5.38079 10.5514 5.22801 10.5977 5.08569C10.6438 4.94354 10.7287 4.81707 10.8428 4.72046C10.957 4.62382 11.0962 4.5609 11.2441 4.53882H11.2451L14.1689 4.11206L15.4775 1.46362L15.5342 1.36694C15.597 1.27496 15.6791 1.19664 15.7744 1.13745C15.9016 1.0586 16.0486 1.01636 16.1982 1.01636ZM14.9404 4.53882C14.8826 4.65551 14.7968 4.75627 14.6914 4.83276C14.6125 4.88999 14.5242 4.93227 14.4307 4.95776L14.335 4.97827L11.5225 5.3855L13.5576 7.37085L13.623 7.44214C13.6839 7.51779 13.7305 7.60417 13.7607 7.69702C13.7909 7.79003 13.8046 7.88798 13.7998 7.98511L13.7891 8.08179L13.3086 10.8816L15.8242 9.5603L15.9121 9.52026C16.0031 9.48561 16.1004 9.46753 16.1982 9.46753L16.2949 9.47339C16.3915 9.48516 16.4857 9.5147 16.5723 9.5603H16.5713L19.0859 10.8816L18.6064 8.08179V8.08081C18.5846 7.95284 18.5947 7.82148 18.6348 7.698C18.675 7.57424 18.7447 7.46166 18.8379 7.37085L20.873 5.3855L18.0605 4.97827C17.8315 4.94467 17.6304 4.81442 17.5049 4.62378L17.4551 4.53882L16.1973 1.98999L14.9404 4.53882ZM21.0312 5.33081L20.9619 5.34937V5.35034L21.0312 5.33081Z" fill="#4B1C2F" stroke="#4B1C2F" stroke-width="0.3"/>
</svg>
